<?xml version="1.0" encoding="utf-8"?>
<!-- Generator: Adobe Illustrator 24.1.0, SVG Export Plug-In . SVG Version: 6.00 Build 0)  -->
<svg version="1.1" id="Layer_1" xmlns="http://www.w3.org/2000/svg" xmlns:xlink="http://www.w3.org/1999/xlink" x="0px" y="0px"
	 viewBox="0 0 126 54" style="enable-background:new 0 0 126 54;" xml:space="preserve">
<style type="text/css">
	.st0{fill:#FFFFFF;}
	.st1{fill:url(#SVGID_3_);}
	.st2{fill:#00A88F;}
</style>
<g>
	<path class="st0" d="M11.62,42.1c0,0.4-0.05,0.75-0.16,1.06s-0.25,0.57-0.44,0.78c-0.18,0.21-0.4,0.37-0.66,0.49
		c-0.25,0.11-0.52,0.17-0.81,0.17H7.89v4.68H7.6v-9.56h1.88c0.24,0,0.49,0.04,0.74,0.11c0.25,0.08,0.48,0.21,0.69,0.38
		c0.21,0.18,0.38,0.42,0.51,0.73C11.55,41.26,11.62,41.64,11.62,42.1z M11.32,42.11c0-0.39-0.05-0.71-0.16-0.98
		s-0.24-0.48-0.41-0.65s-0.36-0.29-0.57-0.37c-0.21-0.08-0.41-0.12-0.62-0.12H7.89v4.33h1.71c0.21,0,0.41-0.04,0.62-0.13
		s0.39-0.22,0.55-0.4s0.29-0.41,0.39-0.69C11.27,42.83,11.32,42.49,11.32,42.11z"/>
	<path class="st0" d="M16.02,46.03c0,0.5-0.05,0.97-0.14,1.4c-0.09,0.43-0.23,0.79-0.41,1.1s-0.39,0.54-0.64,0.72
		c-0.25,0.17-0.54,0.26-0.85,0.26c-0.31,0-0.6-0.09-0.85-0.26c-0.25-0.17-0.47-0.41-0.64-0.72c-0.18-0.31-0.31-0.67-0.41-1.1
		c-0.09-0.43-0.14-0.89-0.14-1.4c0-0.51,0.04-0.98,0.13-1.4s0.22-0.79,0.39-1.1s0.38-0.55,0.64-0.72c0.26-0.17,0.55-0.26,0.87-0.26
		c0.32,0,0.6,0.09,0.85,0.26c0.25,0.17,0.47,0.41,0.64,0.72s0.31,0.68,0.41,1.1C15.97,45.05,16.02,45.52,16.02,46.03z M15.73,46.02
		c0-0.46-0.04-0.89-0.12-1.28c-0.08-0.39-0.19-0.73-0.33-1.02c-0.14-0.29-0.33-0.52-0.55-0.68c-0.22-0.17-0.47-0.25-0.75-0.25
		c-0.29,0-0.54,0.08-0.76,0.25s-0.4,0.39-0.55,0.68c-0.14,0.29-0.25,0.63-0.32,1.02c-0.07,0.39-0.11,0.82-0.11,1.28
		c0,0.45,0.04,0.87,0.11,1.26c0.07,0.39,0.18,0.73,0.32,1.01c0.14,0.29,0.33,0.52,0.55,0.68c0.22,0.17,0.47,0.25,0.76,0.25
		s0.54-0.08,0.76-0.25c0.22-0.17,0.4-0.4,0.55-0.68c0.15-0.29,0.26-0.63,0.33-1.01S15.73,46.47,15.73,46.02z"/>
	<path class="st0" d="M21.56,49.28h-0.42L19.8,43.1h-0.01l-1.35,6.18h-0.42l-1.26-6.52h0.28l1.19,6.21h0.01l1.35-6.21h0.39
		l1.35,6.21h0.01l1.2-6.21h0.28L21.56,49.28z"/>
	<path class="st0" d="M23.88,45.95c0,0.48,0.03,0.92,0.1,1.32c0.07,0.41,0.17,0.75,0.32,1.04s0.33,0.51,0.55,0.67
		s0.49,0.24,0.8,0.24c0.38,0,0.68-0.11,0.91-0.34c0.23-0.22,0.41-0.5,0.53-0.81l0.22,0.12c-0.13,0.34-0.33,0.64-0.6,0.9
		s-0.63,0.39-1.06,0.39c-0.34,0-0.64-0.08-0.9-0.25c-0.26-0.17-0.47-0.4-0.65-0.7c-0.18-0.3-0.31-0.67-0.4-1.09s-0.13-0.9-0.13-1.42
		c0-0.49,0.04-0.96,0.13-1.38c0.09-0.43,0.22-0.8,0.39-1.11s0.38-0.55,0.63-0.73c0.25-0.17,0.54-0.26,0.88-0.26
		c0.35,0,0.65,0.08,0.88,0.25c0.24,0.17,0.43,0.39,0.58,0.67s0.25,0.6,0.32,0.97c0.06,0.37,0.09,0.76,0.09,1.16v0.35H23.88z
		 M27.23,45.68c0-0.43-0.03-0.83-0.1-1.18s-0.17-0.66-0.3-0.91c-0.13-0.25-0.3-0.45-0.5-0.59s-0.44-0.21-0.71-0.21
		c-0.32,0-0.6,0.1-0.82,0.31s-0.4,0.46-0.54,0.76c-0.14,0.3-0.24,0.62-0.3,0.95c-0.06,0.33-0.09,0.62-0.09,0.87H27.23z"/>
	<path class="st0" d="M28.87,44.02c0-0.15-0.01-0.3-0.01-0.46c0-0.16-0.01-0.31-0.01-0.45c0-0.14-0.01-0.26-0.02-0.35h0.3
		c0.01,0.09,0.02,0.21,0.02,0.34c0,0.14,0.01,0.29,0.01,0.45s0.01,0.31,0.01,0.45s0,0.27,0,0.38h0.04c0.13-0.64,0.32-1.09,0.59-1.36
		s0.56-0.4,0.88-0.4c0.07,0,0.13,0,0.16,0.01v0.27c-0.02-0.01-0.04-0.01-0.08-0.01s-0.06,0-0.08,0c-0.25,0-0.47,0.09-0.66,0.27
		c-0.19,0.18-0.34,0.41-0.47,0.7s-0.21,0.61-0.28,0.96c-0.06,0.36-0.09,0.71-0.09,1.07v3.38h-0.3v-4.87
		C28.87,44.3,28.87,44.17,28.87,44.02z"/>
	<path class="st0" d="M31.4,45.95c0,0.48,0.03,0.92,0.1,1.32c0.07,0.41,0.17,0.75,0.32,1.04s0.33,0.51,0.55,0.67s0.49,0.24,0.8,0.24
		c0.38,0,0.68-0.11,0.91-0.34c0.23-0.22,0.41-0.5,0.53-0.81l0.22,0.12c-0.13,0.34-0.33,0.64-0.6,0.9s-0.63,0.39-1.06,0.39
		c-0.34,0-0.64-0.08-0.9-0.25c-0.26-0.17-0.47-0.4-0.65-0.7c-0.18-0.3-0.31-0.67-0.4-1.09s-0.13-0.9-0.13-1.42
		c0-0.49,0.04-0.96,0.13-1.38c0.09-0.43,0.22-0.8,0.39-1.11s0.38-0.55,0.63-0.73c0.25-0.17,0.54-0.26,0.88-0.26
		c0.35,0,0.65,0.08,0.88,0.25c0.24,0.17,0.43,0.39,0.58,0.67s0.25,0.6,0.32,0.97c0.06,0.37,0.09,0.76,0.09,1.16v0.35H31.4z
		 M34.75,45.68c0-0.43-0.03-0.83-0.1-1.18s-0.17-0.66-0.3-0.91c-0.13-0.25-0.3-0.45-0.5-0.59s-0.44-0.21-0.71-0.21
		c-0.32,0-0.6,0.1-0.82,0.31s-0.4,0.46-0.54,0.76c-0.14,0.3-0.24,0.62-0.3,0.95c-0.06,0.33-0.09,0.62-0.09,0.87H34.75z"/>
	<path class="st0" d="M37.92,49.5c-0.32,0-0.6-0.09-0.84-0.26c-0.25-0.17-0.46-0.41-0.63-0.72s-0.3-0.67-0.39-1.1
		c-0.09-0.43-0.13-0.89-0.13-1.4c0-0.51,0.04-0.98,0.13-1.4s0.21-0.79,0.38-1.1c0.17-0.31,0.38-0.55,0.63-0.72
		c0.25-0.17,0.54-0.26,0.86-0.26c0.43,0,0.79,0.16,1.08,0.47c0.29,0.31,0.49,0.74,0.61,1.27h0.01v-5.21h0.3v10.21h-0.3v-1.54h-0.01
		c-0.11,0.51-0.3,0.93-0.59,1.26C38.74,49.33,38.37,49.5,37.92,49.5z M39.63,46.02c0-0.46-0.04-0.89-0.11-1.28
		c-0.07-0.39-0.18-0.73-0.32-1.02c-0.14-0.29-0.32-0.52-0.54-0.68s-0.46-0.25-0.74-0.25c-0.29,0-0.54,0.08-0.76,0.25
		c-0.22,0.17-0.39,0.39-0.53,0.68c-0.14,0.29-0.24,0.63-0.31,1.02c-0.07,0.39-0.1,0.82-0.1,1.28c0,0.45,0.03,0.87,0.1,1.26
		s0.17,0.73,0.31,1.01c0.14,0.29,0.32,0.52,0.53,0.68c0.22,0.17,0.47,0.25,0.76,0.25s0.54-0.08,0.76-0.25
		c0.22-0.17,0.39-0.4,0.53-0.68c0.14-0.29,0.25-0.63,0.32-1.01S39.63,46.47,39.63,46.02z"/>
	<path class="st0" d="M44.13,49.28h-0.3V39.08h0.28v5.25h0.01c0.11-0.52,0.3-0.95,0.59-1.28c0.28-0.33,0.65-0.5,1.1-0.5
		c0.32,0,0.6,0.09,0.85,0.26c0.25,0.17,0.46,0.41,0.63,0.72c0.17,0.31,0.3,0.68,0.39,1.1c0.09,0.42,0.14,0.89,0.14,1.4
		c0,0.5-0.04,0.97-0.13,1.4c-0.09,0.43-0.21,0.79-0.38,1.1s-0.38,0.54-0.63,0.72c-0.25,0.17-0.54,0.26-0.87,0.26
		c-0.43,0-0.79-0.16-1.08-0.47s-0.49-0.73-0.61-1.26V49.28z M44.1,46.03c0,0.45,0.04,0.87,0.11,1.26c0.07,0.39,0.18,0.73,0.33,1.02
		c0.14,0.29,0.32,0.51,0.54,0.68c0.21,0.17,0.46,0.25,0.75,0.25s0.54-0.08,0.76-0.25c0.22-0.17,0.4-0.39,0.54-0.68
		c0.14-0.29,0.24-0.63,0.31-1.02c0.07-0.39,0.1-0.81,0.1-1.26c0-0.45-0.03-0.87-0.1-1.26c-0.07-0.39-0.17-0.73-0.31-1.02
		c-0.14-0.29-0.32-0.51-0.54-0.68c-0.22-0.17-0.47-0.25-0.76-0.25s-0.54,0.08-0.76,0.25c-0.22,0.17-0.4,0.39-0.54,0.68
		c-0.14,0.29-0.25,0.63-0.32,1.02C44.14,45.16,44.1,45.58,44.1,46.03z"/>
	<path class="st0" d="M49.62,52.23c-0.18,0.19-0.41,0.29-0.7,0.29c-0.17,0-0.32-0.03-0.45-0.09l0.04-0.26
		c0.04,0.02,0.11,0.04,0.18,0.05c0.08,0.02,0.15,0.03,0.22,0.03c0.28,0,0.48-0.12,0.6-0.35c0.12-0.23,0.23-0.54,0.32-0.92l0.36-1.55
		l-1.75-6.67h0.31l1.59,6.21h0.03l1.54-6.21h0.3l-2.15,8.49C49.95,51.71,49.8,52.04,49.62,52.23z"/>
	<path class="st0" d="M55.64,44.41c0.1-0.57,0.3-1.02,0.59-1.36c0.3-0.34,0.67-0.51,1.12-0.51c0.35,0,0.63,0.08,0.83,0.24
		c0.2,0.16,0.36,0.36,0.47,0.59c0.11,0.24,0.18,0.5,0.21,0.78c0.03,0.28,0.05,0.55,0.05,0.8v4.32h-0.3v-4.32
		c0-0.23-0.01-0.48-0.04-0.73c-0.03-0.25-0.08-0.48-0.17-0.7s-0.22-0.38-0.38-0.52c-0.17-0.14-0.38-0.2-0.66-0.2
		c-0.29,0-0.54,0.08-0.76,0.25c-0.22,0.17-0.4,0.38-0.54,0.64c-0.14,0.26-0.25,0.55-0.32,0.87c-0.07,0.32-0.11,0.63-0.11,0.92v3.78
		h-0.3v-4.87c0-0.11,0-0.24-0.01-0.38c0-0.15-0.01-0.3-0.01-0.46c0-0.16-0.01-0.31-0.01-0.45c0-0.14-0.01-0.26-0.02-0.35h0.3
		c0.01,0.09,0.02,0.21,0.02,0.35c0,0.14,0.01,0.29,0.01,0.45c0,0.16,0.01,0.31,0.01,0.46c0,0.15,0,0.28,0,0.38H55.64z"/>
	<path class="st0" d="M63.96,47.63c-0.1,0.57-0.3,1.02-0.59,1.36c-0.3,0.34-0.67,0.51-1.12,0.51c-0.35,0-0.63-0.08-0.83-0.24
		c-0.2-0.16-0.36-0.36-0.47-0.59c-0.11-0.24-0.18-0.5-0.21-0.78c-0.03-0.28-0.05-0.55-0.05-0.8v-4.32h0.3v4.32
		c0,0.23,0.01,0.48,0.04,0.74c0.03,0.26,0.09,0.49,0.18,0.7s0.22,0.38,0.38,0.51c0.17,0.14,0.38,0.2,0.66,0.2
		c0.29,0,0.54-0.08,0.76-0.25c0.22-0.17,0.4-0.38,0.54-0.64c0.14-0.26,0.25-0.55,0.32-0.87c0.07-0.32,0.11-0.63,0.11-0.92v-3.78h0.3
		v4.87c0,0.11,0,0.24,0.01,0.38c0,0.15,0.01,0.3,0.01,0.46c0,0.16,0.01,0.31,0.01,0.45c0,0.14,0.01,0.26,0.02,0.35h-0.3
		c-0.01-0.09-0.02-0.21-0.02-0.35c0-0.14-0.01-0.29-0.01-0.45c0-0.16-0.01-0.31-0.01-0.46c0-0.15,0-0.28,0-0.38H63.96z"/>
	<path class="st0" d="M67.2,49.36c-0.21,0-0.37-0.04-0.49-0.12c-0.12-0.08-0.22-0.18-0.29-0.32c-0.07-0.14-0.12-0.29-0.14-0.48
		s-0.03-0.38-0.03-0.6v-4.82h-0.88v-0.27h0.88v-1.92h0.3v1.92h1.19v0.27h-1.19v4.83c0,0.44,0.05,0.76,0.16,0.96
		c0.1,0.2,0.29,0.3,0.55,0.3c0.08,0,0.17-0.01,0.26-0.03c0.09-0.02,0.18-0.05,0.25-0.1l0.07,0.24
		C67.62,49.32,67.41,49.36,67.2,49.36z"/>
	<path class="st0" d="M68.74,44.02c0-0.15-0.01-0.3-0.01-0.46c0-0.16-0.01-0.31-0.01-0.45c0-0.14-0.01-0.26-0.02-0.35h0.3
		c0.01,0.09,0.02,0.21,0.02,0.34c0,0.14,0.01,0.29,0.01,0.45s0.01,0.31,0.01,0.45s0,0.27,0,0.38h0.04c0.13-0.64,0.32-1.09,0.59-1.36
		s0.56-0.4,0.88-0.4c0.07,0,0.13,0,0.16,0.01v0.27c-0.02-0.01-0.04-0.01-0.08-0.01s-0.06,0-0.08,0c-0.25,0-0.47,0.09-0.66,0.27
		c-0.19,0.18-0.34,0.41-0.47,0.7s-0.21,0.61-0.28,0.96c-0.06,0.36-0.09,0.71-0.09,1.07v3.38h-0.3v-4.87
		C68.75,44.3,68.75,44.17,68.74,44.02z"/>
	<path class="st0" d="M74.37,47.8c0,0.25,0.01,0.52,0.03,0.8c0.02,0.28,0.04,0.51,0.05,0.69h-0.28c-0.01-0.09-0.02-0.21-0.03-0.34
		c-0.01-0.14-0.02-0.28-0.02-0.43c0-0.15-0.01-0.29-0.01-0.42c0-0.14-0.01-0.25-0.01-0.35h-0.03c-0.13,0.59-0.33,1.03-0.62,1.31
		c-0.29,0.28-0.63,0.42-1.03,0.42c-0.18,0-0.36-0.04-0.53-0.11s-0.33-0.19-0.48-0.34c-0.14-0.16-0.26-0.35-0.34-0.59
		c-0.09-0.23-0.13-0.51-0.13-0.84c0-0.46,0.08-0.83,0.24-1.11c0.16-0.28,0.36-0.5,0.61-0.66s0.5-0.26,0.78-0.31
		c0.28-0.05,0.53-0.07,0.76-0.07h0.74v-0.51c0-0.73-0.13-1.26-0.38-1.6c-0.25-0.34-0.59-0.51-1.01-0.51c-0.26,0-0.5,0.07-0.72,0.21
		s-0.41,0.33-0.56,0.56l-0.2-0.19c0.16-0.26,0.38-0.47,0.66-0.62c0.28-0.15,0.55-0.23,0.82-0.23c0.53,0,0.94,0.19,1.24,0.58
		c0.3,0.39,0.45,0.99,0.45,1.81V47.8z M74.07,45.7h-0.66c-0.24,0-0.49,0.02-0.75,0.07s-0.49,0.13-0.7,0.27s-0.38,0.32-0.52,0.57
		s-0.2,0.57-0.2,0.97c0,0.3,0.04,0.55,0.11,0.75c0.08,0.2,0.17,0.37,0.29,0.49s0.25,0.22,0.39,0.28c0.14,0.06,0.28,0.09,0.42,0.09
		c0.31,0,0.58-0.09,0.78-0.26c0.21-0.18,0.37-0.4,0.5-0.68c0.13-0.28,0.21-0.59,0.26-0.92c0.05-0.34,0.07-0.66,0.07-0.98V45.7z"/>
	<path class="st0" d="M77.86,39.24c-0.07-0.02-0.13-0.03-0.19-0.05c-0.05-0.01-0.12-0.02-0.19-0.02c-0.19,0-0.35,0.05-0.48,0.16
		c-0.13,0.1-0.24,0.24-0.32,0.4c-0.08,0.16-0.14,0.35-0.17,0.56c-0.03,0.21-0.05,0.43-0.05,0.64v1.84h1.19v0.27h-1.19v6.25h-0.3
		v-6.25H75.2v-0.27h0.97v-1.82c0-0.65,0.11-1.14,0.32-1.49s0.54-0.52,0.96-0.52c0.14,0,0.29,0.03,0.45,0.08L77.86,39.24z
		 M79.05,40.74c-0.08,0-0.15-0.03-0.22-0.09c-0.06-0.06-0.09-0.15-0.09-0.27c0-0.1,0.03-0.18,0.09-0.25c0.06-0.07,0.13-0.1,0.22-0.1
		s0.15,0.03,0.22,0.1c0.06,0.07,0.09,0.15,0.09,0.25c0,0.12-0.03,0.21-0.1,0.27C79.19,40.7,79.12,40.74,79.05,40.74z M78.9,49.28
		v-6.52h0.3v6.52H78.9z"/>
	<path class="st0" d="M84.03,48.66c-0.32,0.56-0.79,0.84-1.39,0.84c-0.32,0-0.6-0.09-0.84-0.26c-0.25-0.17-0.46-0.41-0.63-0.72
		s-0.3-0.67-0.39-1.1c-0.09-0.43-0.13-0.89-0.13-1.4c0-0.51,0.04-0.98,0.13-1.4s0.21-0.79,0.38-1.1s0.38-0.55,0.63-0.72
		c0.25-0.17,0.54-0.26,0.86-0.26c0.31,0,0.57,0.07,0.8,0.2s0.41,0.32,0.53,0.57l-0.2,0.19c-0.12-0.24-0.28-0.42-0.48-0.54
		s-0.42-0.18-0.67-0.18c-0.29,0-0.54,0.08-0.76,0.25c-0.22,0.17-0.39,0.39-0.53,0.68c-0.14,0.29-0.24,0.63-0.31,1.02
		c-0.07,0.39-0.1,0.82-0.1,1.28c0,0.45,0.03,0.87,0.1,1.26s0.17,0.73,0.31,1.01c0.14,0.29,0.32,0.52,0.53,0.68
		c0.22,0.17,0.47,0.25,0.76,0.25c0.26,0,0.5-0.07,0.71-0.21c0.21-0.14,0.38-0.33,0.51-0.57L84.03,48.66z"/>
	<path class="st0" d="M87.91,47.8c0,0.25,0.01,0.52,0.03,0.8c0.02,0.28,0.04,0.51,0.05,0.69H87.7c-0.01-0.09-0.02-0.21-0.03-0.34
		c-0.01-0.14-0.02-0.28-0.02-0.43c0-0.15-0.01-0.29-0.01-0.42c0-0.14-0.01-0.25-0.01-0.35h-0.03c-0.13,0.59-0.33,1.03-0.62,1.31
		c-0.29,0.28-0.63,0.42-1.03,0.42c-0.18,0-0.36-0.04-0.53-0.11s-0.33-0.19-0.48-0.34c-0.14-0.16-0.26-0.35-0.34-0.59
		c-0.09-0.23-0.13-0.51-0.13-0.84c0-0.46,0.08-0.83,0.24-1.11c0.16-0.28,0.36-0.5,0.61-0.66s0.5-0.26,0.78-0.31
		c0.28-0.05,0.53-0.07,0.76-0.07h0.74v-0.51c0-0.73-0.13-1.26-0.38-1.6c-0.25-0.34-0.59-0.51-1.01-0.51c-0.26,0-0.5,0.07-0.72,0.21
		s-0.41,0.33-0.56,0.56l-0.2-0.19c0.16-0.26,0.38-0.47,0.66-0.62c0.28-0.15,0.55-0.23,0.82-0.23c0.53,0,0.94,0.19,1.24,0.58
		c0.3,0.39,0.45,0.99,0.45,1.81V47.8z M87.61,45.7h-0.66c-0.24,0-0.49,0.02-0.75,0.07s-0.49,0.13-0.7,0.27s-0.38,0.32-0.52,0.57
		s-0.2,0.57-0.2,0.97c0,0.3,0.04,0.55,0.11,0.75c0.08,0.2,0.17,0.37,0.29,0.49s0.25,0.22,0.39,0.28c0.14,0.06,0.28,0.09,0.42,0.09
		c0.31,0,0.58-0.09,0.78-0.26c0.21-0.18,0.37-0.4,0.5-0.68c0.13-0.28,0.21-0.59,0.26-0.92c0.05-0.34,0.07-0.66,0.07-0.98V45.7z"/>
	<path class="st0" d="M90.59,49.36c-0.21,0-0.37-0.04-0.49-0.12c-0.12-0.08-0.22-0.18-0.29-0.32c-0.07-0.14-0.12-0.29-0.14-0.48
		s-0.03-0.38-0.03-0.6v-4.82h-0.88v-0.27h0.88v-1.92h0.3v1.92h1.19v0.27h-1.19v4.83c0,0.44,0.05,0.76,0.16,0.96
		c0.1,0.2,0.29,0.3,0.55,0.3c0.08,0,0.17-0.01,0.26-0.03c0.09-0.02,0.18-0.05,0.25-0.1l0.07,0.24
		C91.02,49.32,90.81,49.36,90.59,49.36z"/>
	<path class="st0" d="M92.27,40.74c-0.08,0-0.15-0.03-0.22-0.09c-0.06-0.06-0.09-0.15-0.09-0.27c0-0.1,0.03-0.18,0.09-0.25
		c0.06-0.07,0.13-0.1,0.22-0.1s0.15,0.03,0.22,0.1c0.06,0.07,0.09,0.15,0.09,0.25c0,0.12-0.03,0.21-0.1,0.27
		C92.41,40.7,92.34,40.74,92.27,40.74z M92.12,49.28v-6.52h0.3v6.52H92.12z"/>
	<path class="st0" d="M97.94,46.03c0,0.5-0.05,0.97-0.14,1.4c-0.09,0.43-0.23,0.79-0.41,1.1s-0.39,0.54-0.64,0.72
		c-0.25,0.17-0.54,0.26-0.85,0.26c-0.31,0-0.6-0.09-0.85-0.26c-0.25-0.17-0.47-0.41-0.64-0.72c-0.18-0.31-0.31-0.67-0.41-1.1
		c-0.09-0.43-0.14-0.89-0.14-1.4c0-0.51,0.04-0.98,0.13-1.4s0.22-0.79,0.39-1.1s0.38-0.55,0.64-0.72c0.26-0.17,0.55-0.26,0.87-0.26
		c0.32,0,0.6,0.09,0.85,0.26c0.25,0.17,0.47,0.41,0.64,0.72s0.31,0.68,0.41,1.1C97.89,45.05,97.94,45.52,97.94,46.03z M97.64,46.02
		c0-0.46-0.04-0.89-0.12-1.28c-0.08-0.39-0.19-0.73-0.33-1.02c-0.14-0.29-0.33-0.52-0.55-0.68c-0.22-0.17-0.47-0.25-0.75-0.25
		c-0.29,0-0.54,0.08-0.76,0.25s-0.4,0.39-0.55,0.68c-0.14,0.29-0.25,0.63-0.32,1.02c-0.07,0.39-0.11,0.82-0.11,1.28
		c0,0.45,0.04,0.87,0.11,1.26c0.07,0.39,0.18,0.73,0.32,1.01c0.14,0.29,0.33,0.52,0.55,0.68c0.22,0.17,0.47,0.25,0.76,0.25
		s0.54-0.08,0.76-0.25c0.22-0.17,0.4-0.4,0.55-0.68c0.15-0.29,0.26-0.63,0.33-1.01S97.64,46.47,97.64,46.02z"/>
	<path class="st0" d="M99.72,44.41c0.1-0.57,0.3-1.02,0.59-1.36c0.3-0.34,0.67-0.51,1.12-0.51c0.35,0,0.63,0.08,0.83,0.24
		c0.2,0.16,0.36,0.36,0.47,0.59c0.11,0.24,0.18,0.5,0.21,0.78c0.03,0.28,0.05,0.55,0.05,0.8v4.32h-0.3v-4.32
		c0-0.23-0.01-0.48-0.04-0.73c-0.03-0.25-0.08-0.48-0.17-0.7s-0.22-0.38-0.38-0.52c-0.17-0.14-0.38-0.2-0.66-0.2
		c-0.29,0-0.54,0.08-0.76,0.25c-0.22,0.17-0.4,0.38-0.54,0.64c-0.14,0.26-0.25,0.55-0.32,0.87c-0.07,0.32-0.11,0.63-0.11,0.92v3.78
		h-0.3v-4.87c0-0.11,0-0.24-0.01-0.38c0-0.15-0.01-0.3-0.01-0.46c0-0.16-0.01-0.31-0.01-0.45c0-0.14-0.01-0.26-0.02-0.35h0.3
		c0.01,0.09,0.02,0.21,0.02,0.35c0,0.14,0.01,0.29,0.01,0.45c0,0.16,0.01,0.31,0.01,0.46c0,0.15,0,0.28,0,0.38H99.72z"/>
	<path class="st0" d="M104.96,49.36c-0.08,0-0.15-0.03-0.22-0.09c-0.06-0.06-0.09-0.15-0.09-0.26c0-0.1,0.03-0.18,0.09-0.24
		c0.06-0.06,0.13-0.09,0.22-0.09s0.15,0.03,0.22,0.09c0.06,0.06,0.09,0.14,0.09,0.24c0,0.11-0.03,0.19-0.1,0.26
		C105.1,49.33,105.03,49.36,104.96,49.36z"/>
	<path class="st0" d="M109.93,48.66c-0.32,0.56-0.79,0.84-1.39,0.84c-0.32,0-0.6-0.09-0.84-0.26c-0.25-0.17-0.46-0.41-0.63-0.72
		s-0.3-0.67-0.39-1.1c-0.09-0.43-0.13-0.89-0.13-1.4c0-0.51,0.04-0.98,0.13-1.4s0.21-0.79,0.38-1.1s0.38-0.55,0.63-0.72
		c0.25-0.17,0.54-0.26,0.86-0.26c0.31,0,0.57,0.07,0.8,0.2s0.41,0.32,0.53,0.57l-0.2,0.19c-0.12-0.24-0.28-0.42-0.48-0.54
		s-0.42-0.18-0.67-0.18c-0.29,0-0.54,0.08-0.76,0.25c-0.22,0.17-0.39,0.39-0.53,0.68c-0.14,0.29-0.24,0.63-0.31,1.02
		c-0.07,0.39-0.1,0.82-0.1,1.28c0,0.45,0.03,0.87,0.1,1.26s0.17,0.73,0.31,1.01c0.14,0.29,0.32,0.52,0.53,0.68
		c0.22,0.17,0.47,0.25,0.76,0.25c0.26,0,0.5-0.07,0.71-0.21c0.21-0.14,0.38-0.33,0.51-0.57L109.93,48.66z"/>
	<path class="st0" d="M114.49,46.03c0,0.5-0.05,0.97-0.14,1.4c-0.09,0.43-0.23,0.79-0.41,1.1s-0.39,0.54-0.64,0.72
		c-0.25,0.17-0.54,0.26-0.85,0.26c-0.31,0-0.6-0.09-0.85-0.26c-0.25-0.17-0.47-0.41-0.64-0.72c-0.18-0.31-0.31-0.67-0.41-1.1
		c-0.09-0.43-0.14-0.89-0.14-1.4c0-0.51,0.04-0.98,0.13-1.4s0.22-0.79,0.39-1.1s0.38-0.55,0.64-0.72c0.26-0.17,0.55-0.26,0.87-0.26
		c0.32,0,0.6,0.09,0.85,0.26c0.25,0.17,0.47,0.41,0.64,0.72s0.31,0.68,0.41,1.1C114.44,45.05,114.49,45.52,114.49,46.03z
		 M114.19,46.02c0-0.46-0.04-0.89-0.12-1.28c-0.08-0.39-0.19-0.73-0.33-1.02c-0.14-0.29-0.33-0.52-0.55-0.68
		c-0.22-0.17-0.47-0.25-0.75-0.25c-0.29,0-0.54,0.08-0.76,0.25s-0.4,0.39-0.55,0.68c-0.14,0.29-0.25,0.63-0.32,1.02
		c-0.07,0.39-0.11,0.82-0.11,1.28c0,0.45,0.04,0.87,0.11,1.26c0.07,0.39,0.18,0.73,0.32,1.01c0.14,0.29,0.33,0.52,0.55,0.68
		c0.22,0.17,0.47,0.25,0.76,0.25s0.54-0.08,0.76-0.25c0.22-0.17,0.4-0.4,0.55-0.68c0.15-0.29,0.26-0.63,0.33-1.01
		S114.19,46.47,114.19,46.02z"/>
	<path class="st0" d="M121.14,42.55c0.35,0,0.63,0.08,0.83,0.24c0.2,0.16,0.36,0.36,0.47,0.59c0.11,0.24,0.18,0.5,0.21,0.78
		c0.03,0.28,0.05,0.55,0.05,0.8v4.32h-0.3v-4.32c0-0.23-0.01-0.48-0.04-0.73c-0.03-0.25-0.08-0.48-0.17-0.7
		c-0.09-0.21-0.22-0.38-0.38-0.52c-0.17-0.14-0.38-0.2-0.66-0.2c-0.29,0-0.54,0.08-0.75,0.25c-0.21,0.17-0.38,0.38-0.52,0.64
		c-0.14,0.26-0.24,0.55-0.3,0.87c-0.07,0.32-0.1,0.63-0.1,0.92v3.78h-0.3v-4.32c0-0.24-0.01-0.49-0.04-0.75
		c-0.03-0.26-0.08-0.49-0.16-0.7s-0.2-0.38-0.36-0.51c-0.16-0.13-0.37-0.2-0.63-0.2c-0.29,0-0.54,0.08-0.76,0.25
		c-0.22,0.17-0.4,0.38-0.54,0.64c-0.14,0.26-0.25,0.55-0.32,0.87c-0.07,0.32-0.11,0.63-0.11,0.92v3.78h-0.3v-4.87
		c0-0.11,0-0.24-0.01-0.38c0-0.15-0.01-0.3-0.01-0.46c0-0.16-0.01-0.31-0.01-0.45c0-0.14-0.01-0.26-0.02-0.35h0.3
		c0.01,0.09,0.02,0.21,0.02,0.35c0,0.14,0.01,0.29,0.01,0.45c0,0.16,0.01,0.31,0.01,0.46c0,0.15,0,0.28,0,0.38h0.03
		c0.1-0.57,0.3-1.02,0.59-1.36c0.3-0.34,0.67-0.51,1.12-0.51c0.26,0,0.48,0.05,0.66,0.15c0.17,0.1,0.32,0.23,0.42,0.41
		c0.11,0.17,0.18,0.37,0.23,0.61c0.04,0.23,0.08,0.48,0.09,0.74h0.03c0.04-0.26,0.1-0.51,0.2-0.74c0.1-0.23,0.22-0.44,0.37-0.61
		s0.32-0.31,0.51-0.41C120.7,42.6,120.91,42.55,121.14,42.55z"/>
</g>
<g>
	<circle class="st0" cx="17.79" cy="17.83" r="16.32"/>
	<g>
		<g>
			<defs>
				<circle id="SVGID_1_" cx="17.79" cy="17.83" r="11.64"/>
			</defs>
			<clipPath id="SVGID_2_">
				<use xlink:href="#SVGID_1_"  style="overflow:visible;"/>
			</clipPath>
		</g>
	</g>
	<linearGradient id="SVGID_3_" gradientUnits="userSpaceOnUse" x1="2.7735" y1="17.8342" x2="32.8028" y2="17.8342">
		<stop  offset="0" style="stop-color:#00A88F"/>
		<stop  offset="1" style="stop-color:#AEB3B8"/>
	</linearGradient>
	<path class="st1" d="M17.79,2.94c-8.3,0-15.02,6.72-15.02,15.02c0,7.37,5.32,13.5,12.33,14.77c-0.67-0.68-1.09-1.61-1.09-2.64
		c0-0.49,0.11-0.97,0.3-1.43c-4.51-1.47-7.77-5.7-7.77-10.7C6.55,11.74,11.58,6.71,17.79,6.7c6.2,0.01,11.23,5.04,11.25,11.25
		c-0.01,5-3.27,9.23-7.78,10.7c0.19,0.45,0.3,0.93,0.3,1.43c0,1.03-0.42,1.96-1.08,2.64c7-1.27,12.32-7.39,12.32-14.77
		C32.8,9.66,26.08,2.94,17.79,2.94z"/>
	<path class="st2" d="M20.45,28.87l-2.66-6.17l-2.68,6.2c-0.17,0.37-0.26,0.77-0.26,1.19c0,1.62,1.31,2.93,2.93,2.93
		c1.62,0,2.93-1.32,2.93-2.93C20.72,29.65,20.62,29.24,20.45,28.87z"/>
	<g>
		<g>
			<path class="st0" d="M39.73,3.3h4.37l8.97,13.75h0.05V3.3h3.29v18.51h-4.18l-9.15-14.2h-0.05v14.2h-3.29V3.3z"/>
			<path class="st0" d="M74.57,15.01c0,1.12-0.19,2.12-0.57,3.02c-0.38,0.9-0.91,1.66-1.57,2.29c-0.66,0.63-1.45,1.11-2.35,1.45
				c-0.91,0.34-1.89,0.51-2.95,0.51c-1.06,0-2.05-0.17-2.95-0.51s-1.7-0.82-2.37-1.45c-0.67-0.63-1.19-1.39-1.57-2.29
				s-0.56-1.9-0.56-3.02V3.3h3.29v11.61c0,0.45,0.07,0.93,0.21,1.42c0.14,0.5,0.37,0.95,0.69,1.37s0.75,0.76,1.28,1.03
				c0.53,0.27,1.19,0.4,1.97,0.4s1.44-0.13,1.97-0.4c0.53-0.27,0.96-0.62,1.28-1.03c0.32-0.42,0.55-0.88,0.69-1.37
				c0.14-0.5,0.21-0.97,0.21-1.42V3.3h3.29V15.01z"/>
			<path class="st0" d="M81.63,6.28h-5.67V3.3H90.6v2.98h-5.67v15.53h-3.29V6.28z"/>
			<path class="st0" d="M92.06,3.3h6.43c0.89,0,1.75,0.08,2.58,0.25c0.83,0.17,1.56,0.45,2.21,0.85c0.64,0.4,1.16,0.94,1.54,1.62
				c0.38,0.68,0.58,1.54,0.58,2.59c0,1.34-0.37,2.47-1.11,3.37c-0.74,0.91-1.8,1.46-3.18,1.65l4.92,8.18h-3.97l-4.29-7.84h-2.41
				v7.84h-3.29V3.3z M97.92,11.14c0.47,0,0.94-0.02,1.41-0.07c0.47-0.04,0.9-0.15,1.29-0.31c0.39-0.17,0.71-0.42,0.95-0.76
				s0.37-0.81,0.37-1.42c0-0.54-0.11-0.98-0.34-1.31s-0.52-0.58-0.89-0.75c-0.37-0.17-0.77-0.27-1.22-0.33
				c-0.44-0.05-0.88-0.08-1.29-0.08h-2.85v5.02H97.92z"/>
			<path class="st0" d="M113.73,3.3h2.85l7.97,18.51h-3.76l-1.73-4.24h-8.03l-1.67,4.24h-3.69L113.73,3.3z M117.92,14.75l-2.85-7.53
				l-2.9,7.53H117.92z"/>
			<path class="st0" d="M39.04,24.08h6.02v0.85h-5.08v3.58h4.73v0.85h-4.73v4.77h-0.94V24.08z"/>
			<path class="st0" d="M46.5,24.08h0.94v10.05H46.5V24.08z"/>
			<path class="st0" d="M58.04,32.56c-0.48,0.65-1.04,1.12-1.67,1.41c-0.63,0.28-1.32,0.43-2.06,0.43c-0.77,0-1.47-0.13-2.11-0.39
				s-1.18-0.62-1.64-1.09c-0.45-0.47-0.81-1.03-1.06-1.67c-0.26-0.65-0.38-1.36-0.38-2.12c0-0.77,0.13-1.47,0.38-2.11
				c0.25-0.64,0.61-1.2,1.06-1.67c0.46-0.47,1-0.83,1.64-1.1c0.64-0.26,1.34-0.4,2.11-0.4c0.68,0,1.32,0.12,1.91,0.36
				c0.59,0.24,1.11,0.65,1.55,1.21L57,26.04c-0.31-0.47-0.71-0.82-1.2-1.04s-0.99-0.33-1.5-0.33c-0.65,0-1.24,0.11-1.77,0.34
				c-0.53,0.23-0.97,0.54-1.34,0.94c-0.37,0.4-0.65,0.87-0.85,1.4c-0.2,0.54-0.3,1.12-0.3,1.75c0,0.62,0.1,1.21,0.3,1.75
				c0.2,0.54,0.48,1.01,0.85,1.41c0.37,0.4,0.82,0.71,1.34,0.94c0.52,0.23,1.11,0.34,1.77,0.34c0.26,0,0.52-0.03,0.79-0.09
				s0.54-0.16,0.8-0.28c0.26-0.13,0.51-0.29,0.75-0.48c0.24-0.19,0.44-0.43,0.62-0.7L58.04,32.56z"/>
			<path class="st0" d="M62.41,24.08h0.96l4.23,10.05h-1.05l-1.09-2.67h-5.32L59,34.13h-0.98L62.41,24.08z M62.85,25.11l-2.34,5.51
				h4.61L62.85,25.11z"/>
			<path class="st0" d="M69.89,24.94h-3.43v-0.85h7.81v0.85h-3.43v9.2h-0.94V24.94z"/>
			<path class="st0" d="M75.38,24.08h0.94v10.05h-0.94V24.08z"/>
			<path class="st0" d="M77.99,29.11c0-0.77,0.13-1.47,0.38-2.11c0.25-0.64,0.61-1.2,1.06-1.67c0.46-0.47,1-0.83,1.64-1.1
				c0.64-0.26,1.34-0.4,2.11-0.4s1.47,0.13,2.11,0.4c0.64,0.27,1.19,0.63,1.64,1.1c0.45,0.47,0.81,1.02,1.06,1.67
				c0.25,0.64,0.38,1.35,0.38,2.11c0,0.77-0.13,1.47-0.38,2.12c-0.26,0.65-0.61,1.21-1.06,1.67s-1,0.83-1.64,1.09
				s-1.34,0.39-2.11,0.39s-1.47-0.13-2.11-0.39s-1.18-0.62-1.64-1.09c-0.45-0.47-0.81-1.03-1.06-1.67
				C78.12,30.58,77.99,29.87,77.99,29.11z M78.93,29.11c0,0.62,0.1,1.21,0.3,1.75c0.2,0.54,0.48,1.01,0.85,1.41
				c0.37,0.4,0.82,0.71,1.34,0.94c0.52,0.23,1.11,0.34,1.77,0.34c0.65,0,1.24-0.11,1.77-0.34c0.53-0.23,0.97-0.54,1.34-0.94
				c0.37-0.4,0.65-0.87,0.85-1.41c0.2-0.54,0.3-1.12,0.3-1.75c0-0.62-0.1-1.21-0.3-1.75c-0.2-0.54-0.48-1.01-0.85-1.4
				s-0.82-0.71-1.34-0.94c-0.52-0.23-1.11-0.34-1.77-0.34c-0.65,0-1.24,0.11-1.77,0.34c-0.53,0.23-0.97,0.54-1.34,0.94
				c-0.37,0.4-0.65,0.87-0.85,1.4C79.03,27.9,78.93,28.48,78.93,29.11z"/>
			<path class="st0" d="M90.06,24.08h1.21l6.12,8.8h0.03v-8.8h0.94v10.05h-1.21l-6.12-8.8h-0.03v8.8h-0.94V24.08z"/>
			<path class="st0" d="M112.21,32.56c-0.48,0.65-1.04,1.12-1.67,1.41c-0.63,0.28-1.32,0.43-2.06,0.43c-0.77,0-1.47-0.13-2.11-0.39
				s-1.18-0.62-1.64-1.09c-0.45-0.47-0.81-1.03-1.06-1.67c-0.26-0.65-0.38-1.36-0.38-2.12c0-0.77,0.13-1.47,0.38-2.11
				c0.25-0.64,0.61-1.2,1.06-1.67c0.46-0.47,1-0.83,1.64-1.1c0.64-0.26,1.34-0.4,2.11-0.4c0.68,0,1.32,0.12,1.91,0.36
				c0.59,0.24,1.11,0.65,1.55,1.21l-0.77,0.64c-0.31-0.47-0.71-0.82-1.2-1.04s-0.99-0.33-1.5-0.33c-0.65,0-1.24,0.11-1.77,0.34
				c-0.53,0.23-0.97,0.54-1.34,0.94c-0.37,0.4-0.65,0.87-0.85,1.4c-0.2,0.54-0.3,1.12-0.3,1.75c0,0.62,0.1,1.21,0.3,1.75
				c0.2,0.54,0.48,1.01,0.85,1.41c0.37,0.4,0.82,0.71,1.34,0.94c0.52,0.23,1.11,0.34,1.77,0.34c0.26,0,0.52-0.03,0.79-0.09
				s0.54-0.16,0.8-0.28c0.26-0.13,0.51-0.29,0.75-0.48c0.24-0.19,0.44-0.43,0.62-0.7L112.21,32.56z"/>
			<path class="st0" d="M112.85,29.11c0-0.77,0.13-1.47,0.38-2.11c0.25-0.64,0.61-1.2,1.06-1.67c0.46-0.47,1-0.83,1.64-1.1
				c0.64-0.26,1.34-0.4,2.11-0.4s1.47,0.13,2.11,0.4c0.64,0.27,1.19,0.63,1.64,1.1c0.45,0.47,0.81,1.02,1.06,1.67
				c0.25,0.64,0.38,1.35,0.38,2.11c0,0.77-0.13,1.47-0.38,2.12c-0.26,0.65-0.61,1.21-1.06,1.67s-1,0.83-1.64,1.09
				s-1.34,0.39-2.11,0.39s-1.47-0.13-2.11-0.39s-1.18-0.62-1.64-1.09c-0.45-0.47-0.81-1.03-1.06-1.67
				C112.98,30.58,112.85,29.87,112.85,29.11z M113.79,29.11c0,0.62,0.1,1.21,0.3,1.75c0.2,0.54,0.48,1.01,0.85,1.41
				c0.37,0.4,0.82,0.71,1.34,0.94c0.52,0.23,1.11,0.34,1.77,0.34c0.65,0,1.24-0.11,1.77-0.34c0.53-0.23,0.97-0.54,1.34-0.94
				c0.37-0.4,0.65-0.87,0.85-1.41c0.2-0.54,0.3-1.12,0.3-1.75c0-0.62-0.1-1.21-0.3-1.75c-0.2-0.54-0.48-1.01-0.85-1.4
				s-0.82-0.71-1.34-0.94c-0.52-0.23-1.11-0.34-1.77-0.34c-0.65,0-1.24,0.11-1.77,0.34c-0.53,0.23-0.97,0.54-1.34,0.94
				c-0.37,0.4-0.65,0.87-0.85,1.4C113.89,27.9,113.79,28.48,113.79,29.11z"/>
		</g>
	</g>
	<g>
		<path class="st0" d="M123.15,33.71c0-0.19,0.07-0.35,0.2-0.48c0.13-0.13,0.29-0.2,0.48-0.2s0.35,0.07,0.48,0.2
			c0.13,0.13,0.2,0.29,0.2,0.48s-0.07,0.35-0.2,0.48c-0.13,0.13-0.29,0.2-0.48,0.2s-0.35-0.07-0.48-0.2
			C123.22,34.06,123.15,33.9,123.15,33.71z"/>
	</g>
</g>
<g>
</g>
<g>
</g>
<g>
</g>
<g>
</g>
<g>
</g>
<g>
</g>
</svg>
