<?xml version="1.0" encoding="utf-8"?>
<!-- Generator: Adobe Illustrator 24.1.0, SVG Export Plug-In . SVG Version: 6.00 Build 0)  -->
<svg version="1.1" id="Layer_1" xmlns="http://www.w3.org/2000/svg" xmlns:xlink="http://www.w3.org/1999/xlink" x="0px" y="0px"
	 viewBox="0 0 367.47 115.73" style="enable-background:new 0 0 367.47 115.73;" xml:space="preserve">
<style type="text/css">
	.st0{fill:#EC008C;}
	.st1{fill:#FFFFFF;}
</style>
<path class="st0" d="M364.02,34.36c-0.18-5.31-2.27-17.61-18.8-17.89c-17.59-0.31-22.52,12.04-40.11,12.04
	c-15.65,0-20.55-10.26-21.43-12.52c-1.09-7.92-2.63-9.08-2.63-9.08h-2.3c-1.34-3.88-2.63-4.32-2.63-4.32h-90.77H182H91.23
	c0,0-1.29,0.44-2.63,4.32h-2.3c0,0-1.54,1.16-2.63,9.08c-0.89,2.25-5.78,12.52-21.44,12.52c-17.59,0-22.52-12.34-40.11-12.04
	C5.59,16.75,3.51,29.04,3.31,34.36c0,0.16-0.01,0.32-0.01,0.47c0,0.14,0.01,0.3,0.01,0.46c0.19,5.32,2.27,17.61,18.81,17.9
	c17.59,0.3,22.52-12.04,40.11-12.04c15.65,0,20.55,10.26,21.44,12.52c1.09,7.92,2.63,9.09,2.63,9.09h2.3
	c1.34,3.87,2.63,4.31,2.63,4.31H182h3.34h90.77c0,0,1.29-0.44,2.63-4.31h2.3c0,0,1.54-1.17,2.63-9.09
	c0.88-2.26,5.78-12.52,21.43-12.52c17.59,0,22.53,12.34,40.11,12.04c16.53-0.29,18.62-12.58,18.8-17.9
	c0.01-0.16,0.01-0.32,0.02-0.46C364.03,34.68,364.03,34.52,364.02,34.36z"/>
<g>
	<g>
		<g>
			<path class="st1" d="M106.04,67.8c-6.95-13.79-8.59-21.3-6.33-35.1c5.57,0,8.36,0,13.93,0c6.53,0,7.94,4.98,8.08,9.91
				c0.09,3-0.41,6.41-2.65,8.4c-1.79,1.59-4.36,2.12-6.87,2.12c-1.95,0-2.92,0-4.87,0c1.3,5.93,2.35,8.89,5.02,14.67
				C109.83,67.8,108.56,67.8,106.04,67.8z M106.42,47.94c1.46,0,2.2,0,3.66,0c2.97,0,4.7-1.23,4.57-5.5
				c-0.12-4.04-1.63-4.64-5.5-4.64c-1.26,0-1.88,0-3.14,0C105.8,41.82,105.88,43.86,106.42,47.94z"/>
			<path class="st1" d="M133.99,52.72c0.85,6.09,1.55,9.15,3.37,15.09c-2.53,0-3.79,0-6.32,0c-4.76-13.79-5.89-21.3-4.34-35.1
				c5.16,0,7.74,0,12.91,0c5.89,0,10.08,1.9,10.11,8.37c0.02,3.84-0.75,7.91-5.27,8.52c0,0.04,0.01,0.06,0.01,0.1
				c4.08,0.52,5.46,3.03,5.88,6.42c0.08,0.61,0.12,0.89,0.2,1.5c0.4,2.96,1.56,8.72,2.99,9.55c0.05,0.26,0.07,0.39,0.13,0.65
				c-2.78,0-4.17,0-6.95,0c-1.07-1.79-1.83-4.95-2.27-7.29c-0.12-0.62-0.17-0.93-0.28-1.54c-0.42-2.16-0.77-5.14-3.16-5.79
				c-1.59-0.43-3.24-0.47-4.88-0.47c-0.37,0-0.55,0-0.92,0C134.71,52.72,134.47,52.72,133.99,52.72z M133.41,47.52
				c2.15,0,3.22,0,5.37,0c2.23-0.14,3.85-1.56,3.79-5.08c-0.07-3.95-1.7-4.59-4.29-4.64c-2.04,0-3.06,0-5.1,0
				C133.04,41.65,133.09,43.61,133.41,47.52z"/>
			<path class="st1" d="M156.15,47.42c-0.11-9.01,1.13-15.55,12.03-15.55c10.89,0,11.52,6.54,11.89,15.55
				c0.02,2.02,0.04,3.04,0.06,5.05c0.14,9.44-0.28,16.15-10.6,16.15c-10.33,0-12.33-6.71-13.07-16.15
				C156.31,50.46,156.24,49.44,156.15,47.42z M163.64,55.78c0.22,2.92,0.95,7.63,5.39,7.63c4.63,0,4.38-4.82,4.25-8.21
				c-0.15-3.8-0.21-5.71-0.27-9.53c-0.04-3.01-0.16-8.57-4.96-8.57c-4.65,0-5,4.51-4.94,7.53c0.01,0.53,0.01,0.79,0.03,1.32
				C163.24,49.88,163.35,51.86,163.64,55.78z"/>
			<path class="st1" d="M183.84,32.7c9.1,0,13.65,0,22.75,0c0.08,2.02,0.11,3.05,0.14,5.1c-3.2,0-4.8,0-8,0
				c0.1,11.92-0.14,18.23-1.03,30c-2.53,0-3.79,0-6.32,0c0.42-11.77,0.53-18.08,0.49-30c-3.21,0-4.82,0-8.04,0
				C183.83,35.75,183.83,34.73,183.84,32.7z"/>
			<path class="st1" d="M208.67,67.8c2-13.79,2.48-21.3,1.83-35.1c7.68,0,11.51,0,19.19,0c0.17,2.02,0.23,3.04,0.29,5.09
				c-4.98,0-7.48,0-12.46,0c0.07,3.52,0.05,5.3-0.1,8.86c4.57,0,6.86,0,11.43,0c-0.12,2.08-0.21,3.12-0.43,5.2
				c-4.52,0-6.79,0-11.32,0c-0.34,4.36-0.6,6.54-1.26,10.84c4.72,0,7.09,0,11.8,0c-0.43,2.05-0.67,3.07-1.19,5.09
				C219.33,67.8,215.78,67.8,208.67,67.8z"/>
			<path class="st1" d="M231.46,67.8c3.99-13.79,4.93-21.3,3.63-35.1c2.73,0,4.09,0,6.82,0c1.48,13.8,0.4,21.31-4.13,35.1
				C235.24,67.8,233.99,67.8,231.46,67.8z"/>
			<path class="st1" d="M264.91,32.7c2.73,0,4.09,0,6.81,0c2.27,13.8,0.62,21.31-6.33,35.1c-2.63,0-3.95,0-6.59,0
				c0.3-4.91,0.15-7.42-0.74-12.46c-0.77-4.19-1.56-8.51-3.12-14.04c-0.04,0-0.06,0-0.1,0c0.21,2.91,0.23,6.49-0.18,10.08
				c-0.4,3.54-1.15,7.07-2.04,9.88c-0.82,2.64-1.3,3.95-2.36,6.54c-2.52,0-3.79,0-6.31,0c5.08-13.79,6.28-21.3,4.62-35.1
				c2.82,0,4.23,0,7.05,0c2.8,5.02,3.96,7.59,5.68,12.73c1.42,4.1,2.22,8.33,1.94,14.05c0.04,0,0.06,0,0.09,0
				c0.82-3.19,1.45-6.64,1.78-10.04c0.34-3.39,0.41-6.79,0.34-9.92C265.42,36.78,265.31,35.41,264.91,32.7z"/>
		</g>
	</g>
</g>
<path class="st1" d="M82.63,67.67c0,0.79-1.19,1.43-2.65,1.43c-1.46,0-2.65-0.64-2.65-1.43s1.19-1.43,2.65-1.43
	C81.44,66.24,82.63,66.88,82.63,67.67z"/>
<g>
	<g>
		<g>
			<path class="st1" d="M66.06,99.28C79.37,88.54,92.69,77.8,106,67.06c5.7,0,8.54,0,14.24,0c6.67,0,4.62,4.64,0.64,9.15
				c-2.43,2.75-6.15,5.84-11.15,7.64c-4,1.45-8.11,1.93-11.45,1.93c-2.6,0-3.9,0-6.5,0c-6.11,5.4-9.15,8.09-15.26,13.49
				C72.34,99.28,70.24,99.28,66.06,99.28z M97.13,81.06c1.82,0,2.73,0,4.55,0c3.7,0,7.29-1.11,11.18-5.03
				c3.67-3.69,2.41-4.25-1.81-4.25c-1.37,0-2.05,0-3.42,0C103.43,75.5,101.33,77.36,97.13,81.06z"/>
			<path class="st1" d="M100.45,99.28c13.12-10.5,25.44-21.06,37.38-32.21c3.77,0,5.64,0,9.41,0c-4.33,12.89-5.64,19.33-6.57,32.21
				c-4.49,0-6.73,0-11.21,0c0.8-3.27,1.24-4.9,2.23-8.16c-4.49,0-6.73,0-11.22,0c-3.43,3.26-5.18,4.89-8.79,8.16
				C107.18,99.28,104.94,99.28,100.45,99.28z M125.37,86.39c3.11,0,4.66,0,7.77,0c1.32-3.66,2.03-5.49,3.56-9.14
				c0.59-1.5,1.37-3.01,2.18-4.47c0.4-0.72,0.81-1.46,1.17-2.15c-0.04,0-0.06,0-0.11,0c-0.57,0.69-1.16,1.43-1.72,2.15
				c-1.17,1.49-2.4,2.96-3.84,4.47C130.9,80.9,129.1,82.73,125.37,86.39z"/>
			<path class="st1" d="M171.96,76.86c0.04-0.19,0.05-0.29,0.09-0.47c0.5-2.71,0.5-5.25-3.37-5.25c-2.49,0-4.33,0.82-5,3.01
				c-0.76,2.45,0.99,3.41,3.29,4.6c2.39,1.25,7.14,3.65,9.4,5.28c2.79,2.02,3.7,3.95,3.52,6.75c-0.4,6.1-7.7,9.28-18.02,9.28
				c-12.66,0-15.47-4.04-13.05-9.8c0.4-0.95,0.6-1.42,1-2.36c3.69,0,5.54,0,9.23,0c-0.31,0.98-0.46,1.46-0.77,2.45
				c-0.89,2.84,0.13,4.85,4.78,4.85c4.22,0,6.46-1.33,6.9-3.78c0.34-1.89-0.9-3.17-2.9-4.25c-4.21-2.28-9.62-4.27-11.53-7.43
				c-0.84-1.39-0.79-3.22-0.07-4.94c2.31-5.5,7.12-8.51,14.4-8.51c10.97,0,10.07,7.39,9.87,10.57
				C176.61,76.86,175.06,76.86,171.96,76.86z"/>
			<path class="st1" d="M184.69,67.06c9.3,0,13.95,0,23.25,0c0.65,1.89,0.98,2.83,1.64,4.73c-3.48,0-5.23,0-8.72,0
				c2.41,11,3.63,16.49,6.04,27.49c-4.18,0-6.28,0-10.46,0c-1.22-11-1.84-16.49-3.06-27.49c-3.5,0-5.26,0-8.76,0
				C184.64,69.9,184.66,68.95,184.69,67.06z"/>
			<path class="st1" d="M228.5,85.4c2.87,5.55,4.32,8.32,7.19,13.88c-4.19,0-6.29,0-10.47,0c-5.27-12.89-7.92-19.32-13.2-32.21
				c5.28,0,7.92,0,13.2,0c6.03,0,12.02,1.81,16.64,7.73c2.75,3.53,4.38,7.21-1.05,7.77c0.02,0.03,0.03,0.05,0.05,0.09
				c5.46,0.47,8.81,2.75,11.21,5.84c0.42,0.55,0.64,0.82,1.06,1.37c2.09,2.71,6.35,8.04,9.05,8.8c0.19,0.24,0.3,0.36,0.48,0.61
				c-4.6,0-6.91,0-11.52,0c-2.18-1.68-4.19-4.6-5.62-6.75c-0.38-0.57-0.57-0.85-0.95-1.41c-1.39-1.98-3.15-4.7-6.61-5.29
				c-2.29-0.39-4.49-0.43-6.67-0.43c-0.48,0-0.73,0-1.21,0C229.46,85.4,229.13,85.4,228.5,85.4z M226.05,80.68c2.66,0,3.98,0,6.64,0
				c2.7-0.13,4-1.42,1.86-4.64c-2.41-3.6-4.68-4.21-7.54-4.25c-2.23,0-3.34,0-5.56,0C223.28,75.34,224.21,77.12,226.05,80.68z"/>
			<path class="st1" d="M258.95,75.52c2.44,1.59,4.82,3.22,6.95,4.95c0.05,0,0.07,0,0.12,0c-1.97-2.5-2.77-4.3-3.76-6.11
				c-1.64-2.92-2.53-4.38-4.47-7.3c3.05,0,4.57,0,7.62,0c5.24,7.41,7.3,11.11,10.26,18.51c5.95,5.48,8.93,8.23,14.89,13.7
				c-4.19,0-6.28,0-10.47,0c-5.36-5.48-8.04-8.22-13.4-13.7c-12.25-7.4-17.82-11.1-27.82-18.51c3.04,0,4.57,0,7.62,0
				C251.26,70.45,253.75,72.14,258.95,75.52z"/>
		</g>
	</g>
	<path class="st1" d="M66.76,82.15c0,1.61-2.43,2.92-5.43,2.92c-3,0-5.43-1.3-5.43-2.92c0-1.62,2.43-2.92,5.43-2.92
		C64.33,79.23,66.76,80.54,66.76,82.15z"/>
	<path class="st1" d="M291.81,75.89c0,1.61-2.43,2.92-5.43,2.92c-3,0-5.43-1.31-5.43-2.92c0-1.62,2.43-2.92,5.43-2.92
		C289.38,72.97,291.81,74.27,291.81,75.89z"/>
	<path class="st1" d="M287.78,84.24c0,1.16-1.75,2.1-3.9,2.1c-2.16,0-3.9-0.95-3.9-2.1c0-1.16,1.75-2.1,3.9-2.1
		C286.03,82.14,287.78,83.07,287.78,84.24z"/>
	<path class="st1" d="M295.29,85.67c0,0.79-1.19,1.43-2.65,1.43c-1.46,0-2.65-0.64-2.65-1.43s1.19-1.42,2.65-1.42
		C294.1,84.25,295.29,84.88,295.29,85.67z"/>
	<path class="st1" d="M188.82,100.94c0,0.79-1.19,1.43-2.65,1.43c-1.46,0-2.65-0.64-2.65-1.43c0-0.79,1.18-1.43,2.65-1.43
		C187.64,99.51,188.82,100.15,188.82,100.94z"/>
	<path class="st1" d="M70.25,88.65c0,0.79-1.19,1.43-2.65,1.43c-1.46,0-2.65-0.64-2.65-1.43c0-0.79,1.19-1.43,2.65-1.43
		C69.06,87.23,70.25,87.87,70.25,88.65z"/>
	<path class="st1" d="M53.21,94.5c0,0.69-1.04,1.25-2.32,1.25c-1.28,0-2.32-0.56-2.32-1.25c0-0.69,1.04-1.25,2.32-1.25
		C52.18,93.25,53.21,93.81,53.21,94.5z"/>
	<path class="st1" d="M212.89,80.07c0,0.79-1.18,1.43-2.65,1.43c-1.46,0-2.64-0.64-2.64-1.43c0-0.79,1.18-1.43,2.64-1.43
		C211.71,78.64,212.89,79.27,212.89,80.07z"/>
	<path class="st1" d="M314.21,98.43c0,0.83-1.24,1.5-2.78,1.5c-1.54,0-2.79-0.67-2.79-1.5c0-0.83,1.25-1.5,2.79-1.5
		C312.97,96.93,314.21,97.6,314.21,98.43z"/>
	<path class="st1" d="M90.29,74.63c0,0.8-1.19,1.43-2.65,1.43c-1.46,0-2.65-0.63-2.65-1.43c0-0.79,1.19-1.42,2.65-1.42
		C89.1,73.21,90.29,73.84,90.29,74.63z"/>
	<path class="st1" d="M97.82,107.2c0,1.17-1.75,2.11-3.92,2.11c-2.16,0-3.91-0.94-3.91-2.11c0-1.16,1.75-2.11,3.91-2.11
		C96.06,105.09,97.82,106.04,97.82,107.2z"/>
	<path class="st1" d="M225.29,106.59c0,2.2-3.31,3.97-7.38,3.97c-4.08,0-7.39-1.78-7.39-3.97c0-2.2,3.3-3.98,7.39-3.98
		C221.98,102.61,225.29,104.39,225.29,106.59z"/>
</g>
<g>
</g>
<g>
</g>
<g>
</g>
<g>
</g>
<g>
</g>
<g>
</g>
</svg>
