<?xml version="1.0" encoding="utf-8"?>
<!-- Generator: Adobe Illustrator 24.1.3, SVG Export Plug-In . SVG Version: 6.00 Build 0)  -->
<svg version="1.1" id="Layer_1" xmlns="http://www.w3.org/2000/svg" xmlns:xlink="http://www.w3.org/1999/xlink" x="0px" y="0px"
	 viewBox="0 0 10 10" style="enable-background:new 0 0 10 10;" xml:space="preserve">
<style type="text/css">
	.st0{fill:#333131;}
</style>
<path id="Icon_awesome-instagram" class="st0" d="M5,2.4C3.6,2.4,2.4,3.6,2.4,5S3.6,7.6,5,7.6S7.6,6.4,7.6,5C7.6,3.6,6.4,2.4,5,2.4
	C5,2.4,5,2.4,5,2.4z M5,6.7C4.1,6.7,3.3,5.9,3.3,5c0-0.9,0.7-1.7,1.7-1.7c0.9,0,1.7,0.7,1.7,1.7v0C6.7,5.9,5.9,6.7,5,6.7z M8.3,2.3
	c0,0.3-0.3,0.6-0.6,0.6c-0.3,0-0.6-0.3-0.6-0.6c0-0.3,0.3-0.6,0.6-0.6C8,1.7,8.3,2,8.3,2.3C8.3,2.3,8.3,2.3,8.3,2.3z M10,2.9
	c0-0.8-0.3-1.5-0.8-2.1C8.6,0.3,7.8,0,7.1,0C6.2,0,3.8,0,2.9,0C2.2,0,1.4,0.3,0.8,0.8C0.3,1.4,0,2.2,0,2.9c0,0.8,0,3.3,0,4.1
	c0,0.8,0.3,1.5,0.8,2.1C1.4,9.7,2.2,10,2.9,10c0.8,0,3.3,0,4.1,0c0.8,0,1.5-0.3,2.1-0.8C9.7,8.6,10,7.8,10,7.1C10,6.2,10,3.8,10,2.9
	L10,2.9z M8.9,7.9c-0.2,0.4-0.5,0.8-1,1C7.3,9.2,5.7,9.1,5,9.1S2.7,9.2,2.1,8.9c-0.4-0.2-0.8-0.5-1-1C0.8,7.3,0.9,5.7,0.9,5
	S0.8,2.7,1.1,2.1c0.2-0.4,0.5-0.8,1-1C2.7,0.8,4.3,0.9,5,0.9s2.3-0.1,2.9,0.2c0.4,0.2,0.8,0.5,1,1C9.2,2.7,9.1,4.3,9.1,5
	S9.2,7.3,8.9,7.9z"/>
</svg>
